<svg width="24" height="18" viewBox="0 0 24 18" fill="none" xmlns="http://www.w3.org/2000/svg">
<path fill-rule="evenodd" clip-rule="evenodd" d="M21.4977 13.9202L21.163 14.534C20.1569 14.1918 19.0104 14.5529 18.4089 15.4854C18.225 15.7682 18.1128 16.0747 18.061 16.3868H18.06L17.2077 16.3736C17.1002 15.7418 16.7457 15.1554 16.1649 14.7801C15.5529 14.3851 14.8307 14.3172 14.1839 14.5152L13.8369 13.8844C14.3093 13.4507 14.6101 12.8341 14.6101 12.1429C14.6101 11.4254 14.2857 10.7899 13.7813 10.3553L14.1848 9.65284C14.4215 9.73298 14.6714 9.78578 14.9344 9.78578C16.0781 9.78578 17.0323 8.97586 17.2557 7.89911C17.5084 7.89817 17.7762 7.89629 18.0346 7.89534C18.2561 8.97398 19.2112 9.78578 20.3568 9.78578C20.6387 9.78578 20.9046 9.72827 21.1554 9.63775L21.5486 10.3232C21.0225 10.7579 20.6812 11.4075 20.6812 12.1429C20.6812 12.8548 21.0017 13.4856 21.4977 13.9202ZM23.3268 13.4205C23.4136 13.7383 23.2995 13.9985 23.2467 14.0965L22.3114 15.7814C22.2661 15.8654 22.2067 15.9427 22.1341 16.0096C21.9446 16.1831 21.7296 16.2284 21.6457 16.2397C21.5316 16.2557 21.426 16.2463 21.3459 16.2302L20.6067 16.0351C20.5643 16.0313 20.5445 16.0388 20.5322 16.0445L20.3681 16.1426L19.6374 16.6008L19.5978 16.6649L19.4611 17.2514C19.4526 17.3306 19.396 17.5606 19.1924 17.753C18.9557 17.9764 18.6757 18 18.5663 18L16.6297 17.9661C16.5345 17.9651 16.4392 17.9481 16.3468 17.9161C16.113 17.835 15.9753 17.6794 15.9141 17.5936C15.8565 17.5154 15.8103 17.4239 15.7811 17.323L15.6057 16.5791C15.5907 16.5442 15.5756 16.5291 15.5633 16.5197L15.0702 16.185L14.8439 16.0681L14.8401 16.069L14.7638 16.0671L14.1886 16.2434C14.1575 16.2614 13.8548 16.3349 13.6182 16.2632C13.3023 16.1699 13.1402 15.9342 13.0855 15.8371L12.1464 14.1559C12.1011 14.0767 12.0653 13.9806 12.0474 13.8835C12.0021 13.6449 12.0653 13.4488 12.1068 13.3526C12.1492 13.2574 12.2058 13.1735 12.2746 13.099L12.8318 12.5729C12.8545 12.5437 12.8592 12.5201 12.862 12.505L12.8667 12.4239L12.8234 11.6338L12.7866 11.5678L12.3415 11.1633C12.2039 11.0615 12.0841 10.8823 12.0342 10.6824C11.9521 10.359 12.0738 10.1016 12.1294 10.0055L13.0968 8.34132C13.1458 8.2574 13.2071 8.18103 13.2806 8.11692C13.4636 7.95474 13.6653 7.90949 13.77 7.89817C13.8567 7.88591 13.9755 7.89063 14.0764 7.9142L14.8071 8.12446C14.8524 8.12634 14.8694 8.12069 14.8807 8.11503L15.4125 7.8482L15.6246 7.70489L15.6642 7.63983L15.7905 7.05054C15.8103 6.87988 15.9037 6.68659 16.0517 6.54328C16.2903 6.31039 16.5741 6.28588 16.6853 6.28588H18.6125C18.7087 6.28588 18.8039 6.30002 18.8944 6.33019C19.1273 6.40751 19.2678 6.55931 19.331 6.64322C19.3932 6.72525 19.4394 6.81671 19.4715 6.91477L19.6582 7.65397C19.6723 7.68886 19.6902 7.70488 19.7025 7.71337L20.0249 7.92457L20.5152 8.13954L21.0875 7.934C21.1535 7.90006 21.4307 7.83688 21.6589 7.89911C21.8795 7.95757 22.0785 8.1056 22.2011 8.30643L23.1882 9.96398C23.2382 10.047 23.275 10.1375 23.2948 10.2327C23.3485 10.4731 23.2891 10.6711 23.2495 10.7673C23.2099 10.8635 23.1552 10.9512 23.0864 11.0275L22.548 11.565C22.5273 11.5961 22.5226 11.6178 22.5207 11.6328L22.4971 12.2278L22.5198 12.4843L22.5565 12.5503L23.01 12.9453C23.0779 12.9925 23.2533 13.1509 23.3268 13.4205ZM12.1506 1.13615C13.5979 2.50141 13.4339 4.4984 13.4065 4.77654C13.2604 6.27192 12.4024 7.23176 12.0026 7.66547C11.4586 8.25759 10.5289 9.2674 9.16363 9.27494H9.14949C7.77197 9.27494 6.82533 8.2491 6.28696 7.66547C5.89096 7.23647 5.02918 6.27569 4.88209 4.77654C4.85569 4.4984 4.69258 2.50141 6.13799 1.13615C6.94036 0.378088 8.04257 0 9.14477 0C10.247 0 11.3492 0.378088 12.1506 1.13615ZM11.8112 4.62003C11.8263 4.47011 11.93 3.13125 11.0503 2.30153C10.5798 1.8565 9.88586 1.60192 9.14477 1.60192C8.40368 1.60192 7.70879 1.8565 7.23831 2.30153C6.3605 3.13125 6.46327 4.47011 6.47836 4.62003C6.57453 5.61475 7.17608 6.26626 7.46459 6.57835C7.99637 7.15444 8.52531 7.67113 9.14949 7.67113C9.82269 7.66736 10.4007 7.03941 10.8231 6.58024C11.1125 6.26626 11.7141 5.61192 11.8112 4.62003ZM11.0884 16.397C11.5287 16.397 11.8898 16.7591 11.8898 17.1985C11.8898 17.6378 11.5287 17.999 11.0893 17.9999C7.61111 17.9999 4.13195 17.999 0.652788 17.999C0.619788 17.999 0.288843 17.9914 0.105928 17.7218C0.00127008 17.5681 -0.00155851 17.4087 0.000327215 17.3437C0.0898992 16.5375 0.418958 14.5368 1.96431 12.6228C3.4116 10.8313 5.16156 10.0601 6.05068 9.74986C6.10819 9.73006 6.16476 9.71969 6.22228 9.71969C6.31751 9.71969 6.41179 9.74797 6.49571 9.8036C6.94357 10.1025 7.84306 10.5899 9.06501 10.6107C9.10367 10.6116 9.14421 10.6116 9.14421 10.6116C9.33655 10.6116 9.50061 10.5984 9.63167 10.5824C10.0682 10.5277 10.4727 10.8417 10.5274 11.2782C10.5811 11.7035 10.2813 12.0938 9.86078 12.1636C9.62884 12.19 9.39501 12.2145 9.14421 12.2145L9.03578 12.2136C7.8176 12.1928 6.82759 11.8298 6.11385 11.4432C5.23981 11.8147 4.14515 12.4738 3.21172 13.6297C2.43857 14.5867 2.02748 15.5871 1.80874 16.397H11.0884ZM17.683 10.8555C17.0116 10.8555 16.4676 11.3995 16.4676 12.0708C16.4676 12.7412 17.0116 13.2852 17.683 13.2852C18.3533 13.2852 18.8974 12.7412 18.8974 12.0708C18.8974 11.3995 18.3533 10.8555 17.683 10.8555Z" fill="#374A61"/>
</svg>
