<svg width="20" height="19" viewBox="0 0 20 19" fill="none" xmlns="http://www.w3.org/2000/svg">
<path d="M6.3109 16.8723C6.23348 16.8723 6.17065 16.8094 6.17065 16.732V1.14024C6.17065 1.06283 6.23348 1 6.3109 1C6.38831 1 6.45114 1.06283 6.45114 1.14024V16.732C6.45114 16.8094 6.38831 16.8723 6.3109 16.8723Z" fill="#374A61" stroke="#374A61" stroke-width="0.8"/>
<path d="M13.6893 16.8723C13.6119 16.8723 13.5491 16.8094 13.5491 16.732V1.14024C13.5491 1.06283 13.6119 1 13.6893 1C13.7667 1 13.8296 1.06283 13.8296 1.14024V16.732C13.8296 16.8094 13.7667 16.8723 13.6893 16.8723Z" fill="#374A61" stroke="#374A61" stroke-width="0.8"/>
<path d="M10.902 9.07748H9.09752C8.70092 9.07748 8.37817 8.75474 8.37817 8.35795V7.13372C8.37817 6.73693 8.70092 6.41418 9.09752 6.41418H10.902C11.2988 6.41418 11.6215 6.73693 11.6215 7.13372V8.35795C11.6215 8.75474 11.2988 9.07748 10.902 9.07748ZM9.09752 6.69486C8.85556 6.69486 8.65866 6.89176 8.65866 7.13391V8.35813C8.65866 8.60029 8.85556 8.79719 9.09752 8.79719H10.902C11.1441 8.79719 11.341 8.60029 11.341 8.35813V7.13391C11.341 6.89176 11.1441 6.69486 10.902 6.69486H9.09752Z" fill="#374A61" stroke="#374A61" stroke-width="0.8"/>
<path d="M10.902 13.5044H9.09752C8.70092 13.5044 8.37817 13.1816 8.37817 12.7848V11.5602C8.37817 11.1638 8.70092 10.8411 9.09752 10.8411H10.902C11.2988 10.8411 11.6215 11.1638 11.6215 11.5602V12.7848C11.6215 13.1818 11.2988 13.5044 10.902 13.5044ZM9.09752 11.1217C8.85556 11.1217 8.65866 11.3186 8.65866 11.5604V12.785C8.65866 13.0272 8.85556 13.2241 9.09752 13.2241H10.902C11.1441 13.2241 11.341 13.0272 11.341 12.785V11.5604C11.341 11.3186 11.1441 11.1217 10.902 11.1217H9.09752Z" fill="#374A61" stroke="#374A61" stroke-width="0.8"/>
<path d="M10.902 17.9309H9.09752C8.70092 17.9309 8.37817 17.6081 8.37817 17.2117V15.9871C8.37817 15.5907 8.70092 15.2679 9.09752 15.2679H10.902C11.2988 15.2679 11.6215 15.5907 11.6215 15.9871V17.2117C11.6215 17.6081 11.2988 17.9309 10.902 17.9309ZM9.09752 15.5484C8.85556 15.5484 8.65866 15.7453 8.65866 15.9871V17.2117C8.65866 17.4535 8.85556 17.6504 9.09752 17.6504H10.902C11.1441 17.6504 11.341 17.4535 11.341 17.2117V15.9871C11.341 15.7453 11.1441 15.5484 10.902 15.5484H9.09752Z" fill="#374A61" stroke="#374A61" stroke-width="0.8"/>
<path d="M10.902 4.62636H9.09752C8.70092 4.62636 8.37817 4.30362 8.37817 3.9072V2.68279C8.37817 2.28637 8.70092 1.96362 9.09752 1.96362H10.902C11.2988 1.96362 11.6215 2.28637 11.6215 2.68279V3.90738C11.6215 4.3038 11.2988 4.62636 10.902 4.62636ZM9.09752 2.24411C8.85556 2.24411 8.65866 2.44101 8.65866 2.68279V3.90738C8.65866 4.14916 8.85556 4.34606 9.09752 4.34606H10.902C11.1441 4.34606 11.341 4.14916 11.341 3.90738V2.68279C11.341 2.44101 11.1441 2.24411 10.902 2.24411H9.09752Z" fill="#374A61" stroke="#374A61" stroke-width="0.8"/>
<path d="M3.52399 9.07748H1.71935C1.32274 9.07748 1 8.75474 1 8.35795V7.13372C1 6.73693 1.32274 6.41418 1.71935 6.41418H3.52399C3.9206 6.41418 4.24334 6.73693 4.24334 7.13372V8.35795C4.24334 8.75474 3.9206 9.07748 3.52399 9.07748ZM1.71935 6.69486C1.47739 6.69486 1.28049 6.89176 1.28049 7.13391V8.35813C1.28049 8.60029 1.47739 8.79719 1.71935 8.79719H3.52399C3.76596 8.79719 3.96286 8.60029 3.96286 8.35813V7.13391C3.96286 6.89176 3.76596 6.69486 3.52399 6.69486H1.71935Z" fill="#374A61" stroke="#374A61" stroke-width="0.8"/>
<path d="M3.52399 4.65065H1.71935C1.32274 4.65065 1 4.32791 1 3.93149V2.70708C1 2.31066 1.32274 1.98792 1.71935 1.98792H3.52399C3.9206 1.98792 4.24334 2.31066 4.24334 2.70708V3.93168C4.24334 4.3281 3.9206 4.65065 3.52399 4.65065ZM1.71935 2.2684C1.47739 2.2684 1.28049 2.4653 1.28049 2.70708V3.93168C1.28049 4.17345 1.47739 4.37036 1.71935 4.37036H3.52399C3.76596 4.37036 3.96286 4.17345 3.96286 3.93168V2.70708C3.96286 2.4653 3.76596 2.2684 3.52399 2.2684H1.71935Z" fill="#374A61" stroke="#374A61" stroke-width="0.8"/>
<path d="M3.52399 13.5044H1.71935C1.32274 13.5044 1 13.1816 1 12.7848V11.5602C1 11.1638 1.32274 10.8411 1.71935 10.8411H3.52399C3.9206 10.8411 4.24334 11.1638 4.24334 11.5602V12.7848C4.24334 13.1818 3.9206 13.5044 3.52399 13.5044ZM1.71935 11.1217C1.47739 11.1217 1.28049 11.3186 1.28049 11.5604V12.785C1.28049 13.0272 1.47739 13.2241 1.71935 13.2241H3.52399C3.76596 13.2241 3.96286 13.0272 3.96286 12.785V11.5604C3.96286 11.3186 3.76596 11.1217 3.52399 11.1217H1.71935Z" fill="#374A61" stroke="#374A61" stroke-width="0.8"/>
<path d="M18.2806 4.62655H16.4759C16.0793 4.62655 15.7566 4.3038 15.7566 3.90738V2.68279C15.7566 2.28637 16.0793 1.96362 16.4759 1.96362H18.2806C18.6772 1.96362 18.9999 2.28637 18.9999 2.68279V3.90738C18.9999 4.3038 18.6772 4.62655 18.2806 4.62655ZM16.4759 2.24411C16.234 2.24411 16.0371 2.44101 16.0371 2.68279V3.90738C16.0371 4.14916 16.234 4.34606 16.4759 4.34606H18.2806C18.5225 4.34606 18.7194 4.14916 18.7194 3.90738V2.68279C18.7194 2.44101 18.5225 2.24411 18.2806 2.24411H16.4759Z" fill="#374A61" stroke="#374A61" stroke-width="0.8"/>
</svg>
