<svg width="19" height="20" viewBox="0 0 19 20" fill="none" xmlns="http://www.w3.org/2000/svg">
<path d="M16.989 2.51648H14.5165V1.82418C14.5165 1.60559 14.4297 1.39596 14.2751 1.2414C14.1205 1.08683 13.9109 1 13.6923 1C13.4737 1 13.2641 1.08683 13.1095 1.2414C12.955 1.39596 12.8681 1.60559 12.8681 1.82418V2.51648H6.6044V1.82418C6.6044 1.60559 6.51756 1.39596 6.363 1.2414C6.20844 1.08683 5.99881 1 5.78022 1C5.56164 1 5.352 1.08683 5.19744 1.2414C5.04288 1.39596 4.95604 1.60559 4.95604 1.82418V2.51648H2.74725C1.87363 2.51648 1 2.99451 1 3.86813V17.3187C1.03372 17.7647 1.23051 18.1826 1.5528 18.4927C1.87509 18.8029 2.30029 18.9834 2.74725 19H16.989C17.8626 19 18.4725 18.1923 18.4725 17.3187V3.86813C18.4725 2.99451 17.8626 2.51648 16.989 2.51648ZM2.64835 4.16484H4.95604V4.98901C4.95604 5.2076 5.04288 5.41723 5.19744 5.57179C5.352 5.72635 5.56164 5.81319 5.78022 5.81319C5.99881 5.81319 6.20844 5.72635 6.363 5.57179C6.51756 5.41723 6.6044 5.2076 6.6044 4.98901V4.16484H12.8681V4.98901C12.8681 5.2076 12.955 5.41723 13.1095 5.57179C13.2641 5.72635 13.4737 5.81319 13.6923 5.81319C13.9109 5.81319 14.1205 5.72635 14.2751 5.57179C14.4297 5.41723 14.5165 5.2076 14.5165 4.98901V4.16484H16.8242V7.13187H2.64835V4.16484ZM2.64835 17.3516V8.78022H16.8242V8.54945L16.989 17.3516H2.64835Z" fill="#374A61" stroke="white" stroke-width="0.15"/>
<path d="M5.99992 12C6.36811 12 6.66659 11.7015 6.66659 11.3333C6.66659 10.9651 6.36811 10.6666 5.99992 10.6666C5.63173 10.6666 5.33325 10.9651 5.33325 11.3333C5.33325 11.7015 5.63173 12 5.99992 12Z" fill="#374A61"/>
<path d="M5.99992 14.6666C6.36811 14.6666 6.66659 14.3681 6.66659 13.9999C6.66659 13.6317 6.36811 13.3333 5.99992 13.3333C5.63173 13.3333 5.33325 13.6317 5.33325 13.9999C5.33325 14.3681 5.63173 14.6666 5.99992 14.6666Z" fill="#374A61"/>
<path d="M8.66667 12C9.03486 12 9.33333 11.7015 9.33333 11.3333C9.33333 10.9651 9.03486 10.6666 8.66667 10.6666C8.29848 10.6666 8 10.9651 8 11.3333C8 11.7015 8.29848 12 8.66667 12Z" fill="#374A61"/>
<path d="M8.66667 14.6666C9.03486 14.6666 9.33333 14.3681 9.33333 13.9999C9.33333 13.6317 9.03486 13.3333 8.66667 13.3333C8.29848 13.3333 8 13.6317 8 13.9999C8 14.3681 8.29848 14.6666 8.66667 14.6666Z" fill="#374A61"/>
<path d="M11.3332 12C11.7014 12 11.9998 11.7015 11.9998 11.3333C11.9998 10.9651 11.7014 10.6666 11.3332 10.6666C10.965 10.6666 10.6665 10.9651 10.6665 11.3333C10.6665 11.7015 10.965 12 11.3332 12Z" fill="#374A61"/>
<path d="M11.3332 14.6666C11.7014 14.6666 11.9998 14.3681 11.9998 13.9999C11.9998 13.6317 11.7014 13.3333 11.3332 13.3333C10.965 13.3333 10.6665 13.6317 10.6665 13.9999C10.6665 14.3681 10.965 14.6666 11.3332 14.6666Z" fill="#374A61"/>
<path d="M13.9999 12C14.3681 12 14.6666 11.7015 14.6666 11.3333C14.6666 10.9651 14.3681 10.6666 13.9999 10.6666C13.6317 10.6666 13.3333 10.9651 13.3333 11.3333C13.3333 11.7015 13.6317 12 13.9999 12Z" fill="#374A61"/>
<path d="M13.9999 14.6666C14.3681 14.6666 14.6666 14.3681 14.6666 13.9999C14.6666 13.6317 14.3681 13.3333 13.9999 13.3333C13.6317 13.3333 13.3333 13.6317 13.3333 13.9999C13.3333 14.3681 13.6317 14.6666 13.9999 14.6666Z" fill="#374A61"/>
</svg>
