<svg width="25" height="17" viewBox="0 0 25 17" fill="none" xmlns="http://www.w3.org/2000/svg">
<path d="M2.78433 4.5677H17.3045C18.29 4.5677 19.0879 3.76953 19.0879 2.78304C19.0879 1.79817 18.2897 1 17.3045 1H2.78433C1.79785 1 1 1.79817 1 2.78304C0.999677 3.76953 1.79785 4.5677 2.78433 4.5677Z" fill="#374A61" stroke="white" stroke-width="1.3"/>
<path d="M16.3345 12.5677H5.69278C4.70629 12.5677 3.90845 13.3688 3.90845 14.3523C3.90845 15.3372 4.70662 16.1364 5.69278 16.1364H16.3345C17.32 16.1364 18.1179 15.3369 18.1179 14.3523C18.1179 13.3688 17.32 12.5677 16.3345 12.5677Z" fill="#374A61" stroke="white" stroke-width="1.3"/>
<path d="M16.3557 7.06769L12.7867 10.0677H14.2904L17.8597 7.06769H16.3557Z" fill="#374A61"/>
<path d="M7.95474 7.06769C6.96826 7.06769 6.17041 7.7399 6.17041 8.56741C6.17041 8.77239 6.21951 8.96787 6.30801 9.14569L8.78037 7.06769H7.95474Z" fill="#374A61"/>
<path d="M13.3291 7.06769L9.76007 10.0677H11.2647L14.8333 7.06769H13.3291Z" fill="#374A61"/>
<path d="M10.3027 7.06769L7.00732 9.83746C7.28221 9.98244 7.60619 10.0677 7.95473 10.0677H8.23769L11.807 7.06769H10.3027Z" fill="#374A61"/>
<path d="M21.866 10.0677H22.8012C23.7867 10.0677 24.5845 9.39683 24.5845 8.56769C24.5845 8.33855 24.5215 8.12217 24.412 7.92778L21.866 10.0677Z" fill="#374A61"/>
<path d="M19.382 7.06769L15.813 10.0677H17.3173L20.8866 7.06769H19.382Z" fill="#374A61"/>
<path d="M22.8008 7.06769H22.4087L18.8394 10.0674H20.3433L23.6794 7.26343C23.42 7.13936 23.1209 7.06769 22.8008 7.06769Z" fill="#374A61"/>
<path d="M16.3557 7.06769L12.7867 10.0677H14.2904L17.8597 7.06769H16.3557Z" stroke="white" stroke-width="0.2"/>
<path d="M7.95474 7.06769C6.96826 7.06769 6.17041 7.7399 6.17041 8.56741C6.17041 8.77239 6.21951 8.96787 6.30801 9.14569L8.78037 7.06769H7.95474Z" stroke="white" stroke-width="0.2"/>
<path d="M13.3291 7.06769L9.76007 10.0677H11.2647L14.8333 7.06769H13.3291Z" stroke="white" stroke-width="0.2"/>
<path d="M10.3027 7.06769L7.00732 9.83746C7.28221 9.98244 7.60619 10.0677 7.95473 10.0677H8.23769L11.807 7.06769H10.3027Z" stroke="white" stroke-width="0.2"/>
<path d="M21.866 10.0677H22.8012C23.7867 10.0677 24.5845 9.39683 24.5845 8.56769C24.5845 8.33855 24.5215 8.12217 24.412 7.92778L21.866 10.0677Z" stroke="white" stroke-width="0.2"/>
<path d="M19.382 7.06769L15.813 10.0677H17.3173L20.8866 7.06769H19.382Z" stroke="white" stroke-width="0.2"/>
<path d="M22.8008 7.06769H22.4087L18.8394 10.0674H20.3433L23.6794 7.26343C23.42 7.13936 23.1209 7.06769 22.8008 7.06769Z" stroke="white" stroke-width="0.2"/>
</svg>
