<svg width="62" height="54" viewBox="0 0 62 54" fill="none" xmlns="http://www.w3.org/2000/svg">
<rect x="0.5" y="0.5" width="61" height="53" rx="7.5" fill="white" stroke="#F4F7FC"/>
<path d="M39.5803 27.1684C39.5803 26.4309 39.5205 25.8928 39.3909 25.3347H30.97V28.6632H35.9129C35.8133 29.4904 35.2751 30.7361 34.0792 31.5731L34.0625 31.6846L36.725 33.7472L36.9095 33.7656C38.6036 32.201 39.5803 29.8989 39.5803 27.1684Z" fill="#4285F4"/>
<path d="M30.9701 35.9383C33.3917 35.9383 35.4247 35.141 36.9097 33.7657L34.0794 31.5732C33.322 32.1014 32.3055 32.4701 30.9701 32.4701C28.5983 32.4701 26.5852 30.9055 25.8676 28.743L25.7624 28.7519L22.9938 30.8946L22.9576 30.9952C24.4326 33.9251 27.4621 35.9383 30.9701 35.9383Z" fill="#34A853"/>
<path d="M25.8675 28.743C25.6781 28.1849 25.5686 27.5869 25.5686 26.9691C25.5686 26.3512 25.6781 25.7533 25.8575 25.1952L25.8525 25.0763L23.0493 22.8993L22.9575 22.9429C22.3497 24.1587 22.0009 25.5241 22.0009 26.9691C22.0009 28.4141 22.3497 29.7793 22.9575 30.9952L25.8675 28.743Z" fill="#FBBC05"/>
<path d="M30.97 21.468C32.6542 21.468 33.7903 22.1955 34.4381 22.8035L36.9693 20.332C35.4147 18.887 33.3917 18 30.97 18C27.4621 18 24.4325 20.0131 22.9576 22.9429L25.8576 25.1952C26.5852 23.0327 28.5982 21.468 30.97 21.468Z" fill="#EB4335"/>
</svg>
