<svg width="18" height="18" viewBox="0 0 18 18" fill="none" xmlns="http://www.w3.org/2000/svg">
<path d="M14.2376 7.26322C14.0188 7.04442 13.6906 7.04442 13.4718 7.26322C13.253 7.48203 13.253 7.81023 13.4718 8.02904L14.8119 9.36921C15.5231 10.0803 15.9333 11.0649 15.9333 12.0769C15.9333 13.0889 15.5231 14.0735 14.8119 14.7846C14.1008 15.4957 13.1162 15.906 12.1042 15.906C11.0923 15.906 10.1077 15.4957 9.39656 14.7846L8.02904 13.4444C7.81023 13.2256 7.48203 13.2256 7.26322 13.4444C7.04442 13.6632 7.04442 13.9914 7.26322 14.2102L8.63075 15.5504C9.56066 16.4803 10.7914 17 12.1042 17C13.4171 17 14.6478 16.5077 15.5778 15.5778C16.5077 14.6478 17.0273 13.4171 17.0273 12.1042C17.0273 10.7914 16.5077 9.56066 15.5778 8.63075L14.2376 7.26322Z" fill="#4A5C7B" stroke="#4A5C7B" stroke-width="0.8"/>
<path d="M5.92308 2.09402C6.93504 2.09402 7.91966 2.50427 8.63077 3.21538L9.99829 4.58291C10.2171 4.80171 10.5453 4.80171 10.7641 4.58291C10.9829 4.3641 10.9829 4.0359 10.7641 3.81709L9.39658 2.44957C8.46667 1.51966 7.2359 1 5.92308 1C4.61026 1 3.37949 1.51966 2.44957 2.44957C1.51966 3.37949 1 4.61026 1 5.92308C1 7.2359 1.51966 8.46667 2.44957 9.39658L3.78974 10.7641C3.89915 10.8735 4.0359 10.9282 4.17265 10.9282C4.3094 10.9282 4.44615 10.8735 4.55556 10.7641C4.77436 10.5453 4.77436 10.2171 4.55556 9.99829L3.21538 8.63077C2.50427 7.91966 2.09402 6.93504 2.09402 5.92308C2.09402 4.91111 2.50427 3.9265 3.21538 3.21538C3.9265 2.50427 4.88376 2.09402 5.92308 2.09402Z" fill="#4A5C7B" stroke="#4A5C7B" stroke-width="0.8"/>
<path d="M10.7641 11.3111C10.9009 11.3111 11.0376 11.2564 11.147 11.147C11.3658 10.9282 11.3658 10.5999 11.147 10.3811L7.64616 6.88029C7.42736 6.66149 7.09915 6.66149 6.88035 6.88029C6.66155 7.09909 6.66155 7.4273 6.88035 7.6461L10.3812 11.147C10.4633 11.2564 10.6274 11.3111 10.7641 11.3111Z" fill="#4A5C7B" stroke="#4A5C7B" stroke-width="0.8"/>
</svg>
