<svg width="17" height="18" viewBox="0 0 17 18" fill="none" xmlns="http://www.w3.org/2000/svg">
<path fill-rule="evenodd" clip-rule="evenodd" d="M12.66 3.92639C11.6221 3.14021 10.3667 2.62615 9 2.49045V1.72727C9 1.72727 9 1 8.27273 1C7.54545 1 7.54545 1.72727 7.54545 1.72727V2.49045C3.87031 2.85535 1 5.95611 1 9.72727C1 13.7439 4.25611 17 8.27273 17C12.2893 17 15.5455 13.7439 15.5455 9.72727C15.5455 7.61411 14.6442 5.71145 13.2051 4.38269L13.5889 3.92534L14.0503 4.31254C14.1112 4.36362 14.2037 4.35362 14.2507 4.29761L14.5379 3.95533C14.5877 3.896 14.5798 3.80745 14.5184 3.75589L13.0663 2.53748C13.0058 2.48666 12.9135 2.49688 12.8665 2.55288L12.5793 2.89517C12.5296 2.95449 12.5404 3.04557 12.5962 3.0924L13.0443 3.46839L12.66 3.92639ZM7.90909 9.0973V5.77922H8.63636V9.0973C8.85375 9.22305 9 9.45808 9 9.72727C9 10.1289 8.67439 10.4545 8.27273 10.4545C7.87107 10.4545 7.54545 10.1289 7.54545 9.72727C7.54545 9.45808 7.69171 9.22305 7.90909 9.0973ZM8.27273 16.2727C11.8877 16.2727 14.8182 13.3422 14.8182 9.72727C14.8182 6.11232 11.8877 3.18182 8.27273 3.18182C4.65777 3.18182 1.72727 6.11232 1.72727 9.72727C1.72727 13.3422 4.65777 16.2727 8.27273 16.2727Z" fill="#4A5C7B" stroke="#4A5C7B"/>
</svg>
