<svg width="18" height="18" viewBox="0 0 18 18" fill="none" xmlns="http://www.w3.org/2000/svg">
<circle cx="9" cy="9" r="8.5" stroke="#374A61"/>
<path d="M8.96168 16.9999C4.54495 16.976 0.980915 13.3784 1.00008 8.96168C1.01924 4.54495 4.6216 0.980915 9.03832 1.00008C13.455 1.01924 17.0191 4.6216 16.9999 9.03832C16.976 13.455 13.3784 17.0191 8.96168 16.9999ZM7.97007 10.2215L6.82517 9.05748C6.55691 8.78443 6.1162 8.78443 5.84793 9.05269C5.57488 9.32096 5.57488 9.76167 5.84314 10.0299L7.47666 11.6826C7.74492 11.9557 8.18564 11.9557 8.4539 11.6874L12.3868 7.79283C12.6598 7.52457 12.6598 7.08385 12.3916 6.81559C12.1233 6.54733 11.6826 6.54254 11.4143 6.8108L7.97007 10.2215Z" fill="black"/>
</svg>
