<svg width="20" height="18" viewBox="0 0 20 18" fill="none" xmlns="http://www.w3.org/2000/svg">
<path d="M19.6479 2.26235H9.22579V4.02758H19.6479V2.26235ZM19.6479 5.23862H9.22579V6.98332H19.6479V5.23862ZM19.6479 11.2989H9.22579V13.0641H19.6479V11.2989ZM19.6479 14.2752H9.22579V16.0404H19.6479V14.2752ZM4.46889 7.93778C3.78281 7.93778 3.11214 7.73433 2.54168 7.35317C1.97122 6.972 1.52661 6.43024 1.26406 5.79638C1.0015 5.16252 0.932807 4.46504 1.06666 3.79215C1.2005 3.11925 1.53088 2.50115 2.01602 2.01602C2.50115 1.53088 3.11925 1.2005 3.79215 1.06665C4.46504 0.932807 5.16252 1.0015 5.79638 1.26406C6.43024 1.52661 6.972 1.97122 7.35317 2.54168C7.73433 3.11214 7.93778 3.78281 7.93778 4.46889C7.93778 5.3889 7.57231 6.27123 6.92177 6.92177C6.27122 7.57231 5.3889 7.93778 4.46889 7.93778ZM4.46889 2.7601C4.13071 2.75909 3.79983 2.85844 3.51815 3.04559C3.23646 3.23274 3.01665 3.49925 2.88652 3.8114C2.7564 4.12355 2.72183 4.46729 2.78718 4.7991C2.85254 5.13091 3.01488 5.43587 3.25365 5.67536C3.49242 5.91485 3.79689 6.07811 4.1285 6.14446C4.46011 6.21081 4.80396 6.17727 5.11649 6.04809C5.42903 5.91891 5.69621 5.69989 5.8842 5.41877C6.0722 5.13766 6.17255 4.80708 6.17255 4.46889C6.17255 4.01658 5.99322 3.58272 5.67387 3.26241C5.35452 2.9421 4.9212 2.76146 4.46889 2.7601ZM4.46889 17C3.78281 17 3.11214 16.7966 2.54168 16.4154C1.97122 16.0342 1.52661 15.4925 1.26406 14.8586C1.0015 14.2247 0.932807 13.5273 1.06666 12.8544C1.2005 12.1815 1.53088 11.5634 2.01602 11.0782C2.50115 10.5931 3.11925 10.2627 3.79215 10.1289C4.46504 9.99503 5.16252 10.0637 5.79638 10.3263C6.43024 10.5888 6.972 11.0334 7.35317 11.6039C7.73433 12.1744 7.93778 12.845 7.93778 13.5311C7.93778 14.4511 7.57231 15.3334 6.92177 15.984C6.27122 16.6345 5.3889 17 4.46889 17ZM4.46889 11.8275C4.13194 11.8275 3.80256 11.9274 3.52239 12.1146C3.24223 12.3018 3.02386 12.5678 2.89492 12.8792C2.76597 13.1905 2.73223 13.533 2.79797 13.8635C2.86371 14.194 3.02596 14.4975 3.26422 14.7358C3.50249 14.974 3.80605 15.1363 4.13652 15.202C4.467 15.2678 4.80955 15.234 5.12085 15.1051C5.43215 14.9761 5.69823 14.7578 5.88543 14.4776C6.07263 14.1974 6.17255 13.8681 6.17255 13.5311C6.17255 13.0793 5.99306 12.6459 5.67356 12.3264C5.35406 12.0069 4.92073 11.8275 4.46889 11.8275Z" fill="#4A5C7B" stroke="#F5F6FA" stroke-width="0.1"/>
</svg>
