<svg width="15" height="18" viewBox="0 0 15 18" fill="none" xmlns="http://www.w3.org/2000/svg">
<path d="M11.3985 5.42608C11.4759 5.3598 11.5387 5.27825 11.5831 5.18653C11.6275 5.09482 11.6524 4.99492 11.6563 4.89311C11.6603 4.7913 11.6431 4.68977 11.606 4.5949C11.5688 4.50004 11.5124 4.41388 11.4404 4.34183C11.3683 4.26979 11.2822 4.21341 11.1873 4.17625C11.0924 4.13908 10.9909 4.12193 10.8891 4.12586C10.7873 4.12979 10.6874 4.15473 10.5957 4.1991C10.504 4.24347 10.4224 4.30633 10.3561 4.38371L4.81164 9.9282C4.59728 10.1421 4.42721 10.3962 4.31118 10.6759C4.19514 10.9556 4.13541 11.2555 4.13541 11.5583C4.13541 11.8611 4.19514 12.161 4.31118 12.4407C4.42721 12.7204 4.59728 12.9745 4.81164 13.1884C5.25051 13.6081 5.8344 13.8424 6.44172 13.8424C7.04903 13.8424 7.63293 13.6081 8.0718 13.1884L13.6163 7.64387C13.9827 7.28568 14.2744 6.85836 14.4746 6.38664C14.6747 5.91492 14.7792 5.40818 14.7821 4.89577C14.7851 4.38337 14.6863 3.87547 14.4915 3.40151C14.2968 2.92754 14.0099 2.49693 13.6476 2.13459C13.2853 1.77226 12.8547 1.48542 12.3807 1.29067C11.9067 1.09593 11.3988 0.997149 10.8864 1.00006C10.374 1.00298 9.86729 1.10752 9.39557 1.30764C8.92385 1.50777 8.49652 1.79949 8.13833 2.16592L2.59384 7.71041C1.57332 8.73093 1 10.115 1 11.5583C1 13.0015 1.57332 14.3856 2.59384 15.4062C3.61436 16.4267 4.99848 17 6.44172 17C7.88495 17 9.26907 16.4267 10.2896 15.4062L14.3555 11.3402C14.4329 11.2739 14.4958 11.1924 14.5402 11.1007C14.5845 11.0089 14.6095 10.909 14.6134 10.8072C14.6173 10.7054 14.6002 10.6039 14.563 10.509C14.5258 10.4142 14.4695 10.328 14.3974 10.256C14.3254 10.1839 14.2392 10.1275 14.1444 10.0904C14.0495 10.0532 13.948 10.036 13.8462 10.04C13.7443 10.0439 13.6444 10.0688 13.5527 10.1132C13.461 10.1576 13.3795 10.2204 13.3132 10.2978L9.24723 14.3638C8.50316 15.1079 7.49399 15.5259 6.44172 15.5259C5.38945 15.5259 4.38027 15.1079 3.63621 14.3638C2.89214 13.6197 2.47413 12.6106 2.47413 11.5583C2.47413 10.506 2.89214 9.49684 3.63621 8.75277L9.18069 3.20828C9.63066 2.75831 10.241 2.50552 10.8773 2.50552C11.5137 2.50552 12.124 2.75831 12.5739 3.20828C13.0239 3.65825 13.2767 4.26854 13.2767 4.9049C13.2767 5.54125 13.0239 6.15154 12.5739 6.60151L7.02943 12.146C6.87177 12.2929 6.66325 12.3729 6.44779 12.3691C6.23233 12.3653 6.02676 12.278 5.87438 12.1256C5.722 11.9732 5.63472 11.7677 5.63092 11.5522C5.62712 11.3367 5.70709 11.1282 5.854 10.9706L11.3985 5.42608Z" fill="#4A5C7B" stroke="#4A5C7B" stroke-width="0.2"/>
</svg>
