<svg width="24" height="20" viewBox="0 0 24 20" fill="none" xmlns="http://www.w3.org/2000/svg">
<path d="M1.55425 8.59328H6.81958C7.12566 8.59328 7.37383 8.34538 7.37383 8.03903V1.55425C7.37383 1.2479 7.12566 1 6.81958 1H1.55425C1.24817 1 1 1.2479 1 1.55425V8.03903C1 8.34538 1.24817 8.59328 1.55425 8.59328ZM2.10849 2.10849H6.26534V7.48478H2.10849V2.10849Z" fill="#374A61" stroke="#374A61" stroke-width="0.35"/>
<path d="M1.55425 19H6.81958C7.12566 19 7.37383 18.7521 7.37383 18.4458V11.961C7.37383 11.6546 7.12566 11.4067 6.81958 11.4067H1.55425C1.24817 11.4067 1 11.6546 1 11.961V18.4458C1 18.7521 1.24817 19 1.55425 19ZM2.10849 12.5152H6.26534V17.8915H2.10849V12.5152Z" fill="#374A61" stroke="#374A61" stroke-width="0.35"/>
<path d="M10.0757 4.78446H16.6341C16.9402 4.78446 17.1884 4.53656 17.1884 4.23021C17.1884 3.92386 16.9402 3.67596 16.6341 3.67596H10.0757C9.76965 3.67596 9.52148 3.92386 9.52148 4.23021C9.52148 4.53656 9.76965 4.78446 10.0757 4.78446Z" fill="#374A61" stroke="#374A61" stroke-width="0.35"/>
<path d="M10.0757 8.59329H22.7308C23.0369 8.59329 23.2851 8.3454 23.2851 8.03905C23.2851 7.7327 23.0369 7.4848 22.7308 7.4848H10.0757C9.76965 7.4848 9.52148 7.7327 9.52148 8.03905C9.52148 8.3454 9.76965 8.59329 10.0757 8.59329Z" fill="#374A61" stroke="#374A61" stroke-width="0.35"/>
<path d="M10.0757 15.1917H16.6341C16.9402 15.1917 17.1884 14.9438 17.1884 14.6375C17.1884 14.3311 16.9402 14.0833 16.6341 14.0833H10.0757C9.76965 14.0833 9.52148 14.3311 9.52148 14.6375C9.52148 14.9438 9.76965 15.1917 10.0757 15.1917Z" fill="#374A61" stroke="#374A61" stroke-width="0.35"/>
<path d="M10.0757 19H22.7308C23.0369 19 23.2851 18.7521 23.2851 18.4457C23.2851 18.1394 23.0369 17.8915 22.7308 17.8915H10.0757C9.76965 17.8915 9.52148 18.1394 9.52148 18.4457C9.52148 18.7521 9.76965 19 10.0757 19Z" fill="#374A61" stroke="#374A61" stroke-width="0.35"/>
</svg>
