<svg width="20" height="20" viewBox="0 0 20 20" fill="none" xmlns="http://www.w3.org/2000/svg">
<path d="M4.75007 18.25V15.8932C5.3934 15.7298 5.96392 15.3566 6.37142 14.8326C6.77892 14.3087 7.00016 13.6638 7.00016 13.0001C7.00016 12.3363 6.77892 11.6915 6.37142 11.1675C5.96392 10.6436 5.3934 10.2704 4.75007 10.107L4.75007 1.75023C4.75007 1.55132 4.67105 1.36055 4.5304 1.2199C4.38975 1.07925 4.19899 1.00023 4.00008 1.00023C3.80117 1.00023 3.61041 1.07925 3.46975 1.2199C3.3291 1.36055 3.25009 1.55132 3.25009 1.75023L3.25009 10.107C2.60675 10.2704 2.03624 10.6436 1.62874 11.1675C1.22124 11.6915 1 12.3363 1 13.0001C1 13.6638 1.22124 14.3087 1.62874 14.8326C2.03624 15.3566 2.60675 15.7298 3.25009 15.8932V18.25C3.25009 18.4489 3.3291 18.6397 3.46975 18.7803C3.61041 18.921 3.80117 19 4.00008 19C4.19899 19 4.38975 18.921 4.5304 18.7803C4.67105 18.6397 4.75007 18.4489 4.75007 18.25ZM2.5001 13.0001C2.5001 12.7034 2.58807 12.4134 2.75289 12.1667C2.91771 11.9201 3.15197 11.7278 3.42606 11.6143C3.70015 11.5007 4.00174 11.471 4.29271 11.5289C4.58368 11.5868 4.85095 11.7297 5.06072 11.9394C5.2705 12.1492 5.41336 12.4165 5.47124 12.7074C5.52911 12.9984 5.49941 13.3 5.38588 13.5741C5.27235 13.8482 5.08009 14.0824 4.83342 14.2473C4.58675 14.4121 4.29675 14.5001 4.00008 14.5001C3.60226 14.5001 3.22073 14.342 2.93943 14.0607C2.65813 13.7794 2.5001 13.3979 2.5001 13.0001Z" fill="#374A61" stroke="white" stroke-width="0.1"/>
<path d="M10.7501 18.25V9.89324C11.3934 9.72983 11.9639 9.35665 12.3714 8.8327C12.7789 8.30875 13.0002 7.66392 13.0002 7.00016C13.0002 6.33639 12.7789 5.69156 12.3714 5.16761C11.9639 4.64366 11.3934 4.27048 10.7501 4.10707V1.75023C10.7501 1.55132 10.6711 1.36055 10.5304 1.2199C10.3898 1.07925 10.199 1.00023 10.0001 1.00023C9.80117 1.00023 9.61041 1.07925 9.46976 1.2199C9.3291 1.36055 9.25009 1.55132 9.25009 1.75023V4.10707C8.60675 4.27048 8.03624 4.64366 7.62874 5.16761C7.22124 5.69156 7 6.33639 7 7.00016C7 7.66392 7.22124 8.30875 7.62874 8.8327C8.03624 9.35665 8.60675 9.72983 9.25009 9.89324V18.25C9.25009 18.4489 9.3291 18.6397 9.46976 18.7803C9.61041 18.921 9.80117 19 10.0001 19C10.199 19 10.3898 18.921 10.5304 18.7803C10.6711 18.6397 10.7501 18.4489 10.7501 18.25ZM8.5001 7.00016C8.5001 6.70349 8.58807 6.41348 8.75289 6.16681C8.91771 5.92014 9.15198 5.72789 9.42606 5.61436C9.70015 5.50082 10.0017 5.47112 10.2927 5.529C10.5837 5.58687 10.8509 5.72973 11.0607 5.93951C11.2705 6.14929 11.4134 6.41656 11.4712 6.70752C11.5291 6.99849 11.4994 7.30009 11.3859 7.57417C11.2723 7.84826 11.0801 8.08252 10.8334 8.24734C10.5868 8.41216 10.2967 8.50014 10.0001 8.50014C9.60226 8.50014 9.22073 8.3421 8.93943 8.0608C8.65813 7.7795 8.5001 7.39798 8.5001 7.00016Z" fill="#374A61" stroke="white" stroke-width="0.1"/>
<path d="M16.7498 18.25V15.8932C17.3932 15.7298 17.9637 15.3566 18.3712 14.8326C18.7787 14.3087 18.9999 13.6638 18.9999 13.0001C18.9999 12.3363 18.7787 11.6915 18.3712 11.1675C17.9637 10.6436 17.3932 10.2704 16.7498 10.107V1.75023C16.7498 1.55132 16.6708 1.36055 16.5302 1.2199C16.3895 1.07925 16.1987 1.00023 15.9998 1.00023C15.8009 1.00023 15.6102 1.07925 15.4695 1.2199C15.3289 1.36055 15.2498 1.55132 15.2498 1.75023V10.107C14.6065 10.2704 14.036 10.6436 13.6285 11.1675C13.221 11.6915 12.9998 12.3363 12.9998 13.0001C12.9998 13.6638 13.221 14.3087 13.6285 14.8326C14.036 15.3566 14.6065 15.7298 15.2498 15.8932V18.25C15.2498 18.4489 15.3289 18.6397 15.4695 18.7803C15.6102 18.921 15.8009 19 15.9998 19C16.1987 19 16.3895 18.921 16.5302 18.7803C16.6708 18.6397 16.7498 18.4489 16.7498 18.25ZM14.4999 13.0001C14.4999 12.7034 14.5878 12.4134 14.7526 12.1667C14.9175 11.9201 15.1517 11.7278 15.4258 11.6143C15.6999 11.5007 16.0015 11.471 16.2925 11.5289C16.5834 11.5868 16.8507 11.7297 17.0605 11.9394C17.2703 12.1492 17.4131 12.4165 17.471 12.7074C17.5289 12.9984 17.4992 13.3 17.3856 13.5741C17.2721 13.8482 17.0798 14.0824 16.8332 14.2473C16.5865 14.4121 16.2965 14.5001 15.9998 14.5001C15.602 14.5001 15.2205 14.342 14.9392 14.0607C14.6579 13.7794 14.4999 13.3979 14.4999 13.0001Z" fill="#374A61" stroke="white" stroke-width="0.1"/>
</svg>
