<svg width="17" height="20" viewBox="0 0 17 20" fill="none" xmlns="http://www.w3.org/2000/svg">
<path d="M14.4618 1H3.57002C3.18297 1.00065 2.81196 1.1547 2.53827 1.42838C2.26459 1.70207 2.11055 2.07308 2.10989 2.46013V5.19046H1.36996C1.27184 5.19046 1.17774 5.22944 1.10836 5.29882C1.03898 5.36821 1 5.46231 1 5.56043C1 5.65855 1.03898 5.75265 1.10836 5.82203C1.17774 5.89141 1.27184 5.93039 1.36996 5.93039H2.10989V8.15018H1.36996C1.27184 8.15018 1.17774 8.18916 1.10836 8.25854C1.03898 8.32792 1 8.42202 1 8.52014C1 8.61826 1.03898 8.71237 1.10836 8.78175C1.17774 8.85113 1.27184 8.89011 1.36996 8.89011H2.10989V11.1099H1.36996C1.27184 11.1099 1.17774 11.1489 1.10836 11.2183C1.03898 11.2876 1 11.3817 1 11.4799C1 11.578 1.03898 11.6721 1.10836 11.7415C1.17774 11.8108 1.27184 11.8498 1.36996 11.8498H2.10989V14.0696H1.36996C1.27184 14.0696 1.17774 14.1086 1.10836 14.178C1.03898 14.2473 1 14.3415 1 14.4396C1 14.5377 1.03898 14.6318 1.10836 14.7012C1.17774 14.7706 1.27184 14.8095 1.36996 14.8095H2.10989V17.5399C2.11055 17.9269 2.26459 18.2979 2.53827 18.5716C2.81196 18.8453 3.18297 18.9993 3.57002 19H14.4618C14.8488 18.9993 15.2198 18.8453 15.4935 18.5716C15.7672 18.2979 15.9212 17.9269 15.9219 17.5399V2.46013C15.9212 2.07308 15.7672 1.70207 15.4935 1.42838C15.2198 1.1547 14.8488 1.00065 14.4618 1ZM15.182 17.5399C15.182 17.7309 15.1061 17.9141 14.971 18.0491C14.836 18.1842 14.6528 18.2601 14.4618 18.2601H3.57002C3.37901 18.2601 3.19583 18.1842 3.06076 18.0491C2.9257 17.9141 2.84982 17.7309 2.84982 17.5399V14.8095H3.83639C3.93451 14.8095 4.02862 14.7706 4.098 14.7012C4.16738 14.6318 4.20636 14.5377 4.20636 14.4396C4.20636 14.3415 4.16738 14.2473 4.098 14.178C4.02862 14.1086 3.93451 14.0696 3.83639 14.0696H2.84982V11.8498H3.83639C3.93451 11.8498 4.02862 11.8108 4.098 11.7415C4.16738 11.6721 4.20636 11.578 4.20636 11.4799C4.20636 11.3817 4.16738 11.2876 4.098 11.2183C4.02862 11.1489 3.93451 11.1099 3.83639 11.1099H2.84982V8.89011H3.83639C3.93451 8.89011 4.02862 8.85113 4.098 8.78175C4.16738 8.71237 4.20636 8.61826 4.20636 8.52014C4.20636 8.42202 4.16738 8.32792 4.098 8.25854C4.02862 8.18916 3.93451 8.15018 3.83639 8.15018H2.84982V5.93039H3.83639C3.93451 5.93039 4.02862 5.89141 4.098 5.82203C4.16738 5.75265 4.20636 5.65855 4.20636 5.56043C4.20636 5.46231 4.16738 5.36821 4.098 5.29882C4.02862 5.22944 3.93451 5.19046 3.83639 5.19046H2.84982V2.46013C2.84982 2.26912 2.9257 2.08593 3.06076 1.95087C3.19583 1.81581 3.37901 1.73993 3.57002 1.73993H14.4618C14.6528 1.73993 14.836 1.81581 14.971 1.95087C15.1061 2.08593 15.182 2.26912 15.182 2.46013V17.5399Z" fill="#374A61" stroke="#374A61" stroke-width="0.6"/>
<path d="M11.7314 3.83398H6.79859C6.53059 3.83464 6.27376 3.94139 6.08426 4.13089C5.89475 4.32039 5.788 4.57722 5.78735 4.84522V6.76904C5.788 7.03703 5.89475 7.29387 6.08426 7.48337C6.27376 7.67287 6.53059 7.77962 6.79859 7.78027H11.7314C11.9994 7.77962 12.2563 7.67287 12.4458 7.48337C12.6353 7.29387 12.742 7.03703 12.7427 6.76904V4.84522C12.742 4.57722 12.6353 4.32039 12.4458 4.13089C12.2563 3.94139 11.9994 3.83464 11.7314 3.83398ZM12.0028 6.76904C12.0021 6.84079 11.9733 6.90943 11.9226 6.96017C11.8718 7.01091 11.8032 7.0397 11.7314 7.04034H6.79859C6.72683 7.0397 6.6582 7.01091 6.60746 6.96017C6.55672 6.90943 6.52793 6.84079 6.52728 6.76904V4.84522C6.52793 4.77346 6.55672 4.70483 6.60746 4.65409C6.6582 4.60335 6.72683 4.57456 6.79859 4.57391H11.7314C11.8032 4.57456 11.8718 4.60335 11.9226 4.65409C11.9733 4.70483 12.0021 4.77346 12.0028 4.84522V6.76904Z" fill="#374A61" stroke="#374A61" stroke-width="0.6"/>
</svg>
