<svg width="14" height="14" viewBox="0 0 14 14" fill="none" xmlns="http://www.w3.org/2000/svg">
<path d="M1.00001 6.99905C1.00269 8.2255 1.38026 9.45194 2.0939 10.4508C2.81289 11.4576 3.81038 12.2208 4.97122 12.6466C6.13474 13.0724 7.44419 13.1112 8.63582 12.7738C9.78863 12.4471 10.8464 11.7656 11.6082 10.8391C12.0112 10.349 12.3299 9.81345 12.5695 9.227C12.8039 8.65529 12.9364 8.04608 12.9833 7.43018C13.077 6.20508 12.7744 4.95052 12.1384 3.89947C11.5212 2.87922 10.592 2.03838 9.50344 1.547C8.91164 1.27922 8.29708 1.11186 7.65172 1.03688C7.02511 0.964575 6.38645 1.00073 5.76787 1.12658C4.59499 1.36625 3.49708 1.98081 2.66963 2.84441C1.83683 3.71604 1.2611 4.8434 1.079 6.03905C1.02946 6.35637 1.00001 6.67637 1.00001 6.99905C1.00001 7.20926 1.18478 7.4101 1.40168 7.40073C1.61992 7.39135 1.80335 7.22399 1.80335 6.99905C1.80335 6.75001 1.81942 6.50098 1.85289 6.25462C1.84754 6.29077 1.84352 6.32558 1.83817 6.36173C1.90377 5.87169 2.03365 5.39102 2.22511 4.93579C2.21172 4.96792 2.19833 5.00006 2.18494 5.03219C2.29474 4.7711 2.42461 4.51805 2.57323 4.27704C2.64687 4.15654 2.72586 4.04006 2.80754 3.92625C2.82494 3.90215 2.84235 3.87939 2.85976 3.85529C2.87047 3.84056 2.88118 3.82717 2.89189 3.81378C2.93474 3.75621 2.82762 3.89545 2.87181 3.83922C2.91599 3.78432 2.95884 3.72943 3.00436 3.67587C3.18511 3.46165 3.38327 3.26081 3.59348 3.0747C3.64168 3.03186 3.69122 2.99035 3.74076 2.95018C3.76754 2.92742 3.79566 2.906 3.82243 2.88458C3.8452 2.86583 3.90277 2.82432 3.79699 2.90466C3.81574 2.89127 3.83448 2.87654 3.85323 2.86181C3.96168 2.78148 4.07281 2.70382 4.18528 2.63152C4.4544 2.46014 4.73691 2.31152 5.03013 2.187C4.998 2.20039 4.96587 2.21378 4.93373 2.22717C5.3903 2.03571 5.86963 1.90583 6.35967 1.84022C6.32352 1.84558 6.28871 1.8496 6.25256 1.85495C6.74662 1.79068 7.24737 1.79068 7.74143 1.85495C7.70528 1.8496 7.67047 1.84558 7.63432 1.84022C8.12436 1.90583 8.60503 2.03571 9.06026 2.22717C9.02812 2.21378 8.99599 2.20039 8.96386 2.187C9.22495 2.29679 9.478 2.42667 9.719 2.57529C9.83951 2.64893 9.95599 2.72792 10.0698 2.8096C10.0939 2.827 10.1167 2.84441 10.1408 2.86181C10.1555 2.87253 10.1689 2.88324 10.1823 2.89395C10.2398 2.93679 10.1006 2.82968 10.1568 2.87386C10.2117 2.91805 10.2666 2.96089 10.3202 3.00642C10.5344 3.18717 10.7352 3.38533 10.9213 3.59554C10.9642 3.64374 11.0057 3.69328 11.0459 3.74282C11.0686 3.7696 11.09 3.79771 11.1115 3.82449C11.1302 3.84725 11.1717 3.90483 11.0914 3.79905C11.1048 3.8178 11.1195 3.83654 11.1342 3.85529C11.2146 3.96374 11.2922 4.07487 11.3645 4.18734C11.5359 4.45646 11.6845 4.73897 11.809 5.03219C11.7957 5.00006 11.7823 4.96792 11.7689 4.93579C11.9603 5.39236 12.0902 5.87169 12.1558 6.36173C12.1505 6.32558 12.1465 6.29077 12.1411 6.25462C12.2054 6.74868 12.2054 7.24943 12.1411 7.74349C12.1465 7.70734 12.1505 7.67252 12.1558 7.63637C12.0902 8.12642 11.9603 8.60709 11.7689 9.06232C11.7823 9.03018 11.7957 8.99805 11.809 8.96591C11.6993 9.227 11.5694 9.48006 11.4208 9.72106C11.3471 9.84156 11.2681 9.95805 11.1865 10.0719C11.169 10.096 11.1516 10.1187 11.1342 10.1428C11.1235 10.1575 11.1128 10.1709 11.1021 10.1843C11.0593 10.2419 11.1664 10.1027 11.1222 10.1589C11.078 10.2138 11.0352 10.2687 10.9896 10.3222C10.8089 10.5365 10.6107 10.7373 10.4005 10.9234C10.3523 10.9662 10.3028 11.0078 10.2532 11.0479C10.2265 11.0707 10.1983 11.0921 10.1716 11.1135C10.1488 11.1323 10.0912 11.1738 10.197 11.0934C10.1782 11.1068 10.1595 11.1216 10.1408 11.1363C10.0323 11.2166 9.92118 11.2943 9.80871 11.3666C9.53959 11.538 9.25708 11.6866 8.96386 11.8111C8.99599 11.7977 9.02812 11.7843 9.06026 11.7709C8.60369 11.9624 8.12436 12.0923 7.63432 12.1579C7.67047 12.1525 7.70528 12.1485 7.74143 12.1432C7.24737 12.2074 6.74662 12.2074 6.25256 12.1432C6.28871 12.1485 6.32352 12.1525 6.35967 12.1579C5.86963 12.0923 5.38896 11.9624 4.93373 11.7709C4.96587 11.7843 4.998 11.7977 5.03013 11.8111C4.76904 11.7013 4.51599 11.5714 4.27499 11.4228C4.15448 11.3492 4.038 11.2702 3.92419 11.1885C3.90009 11.1711 3.87733 11.1537 3.85323 11.1363C3.8385 11.1256 3.82511 11.1149 3.81172 11.1042C3.75415 11.0613 3.8934 11.1684 3.83716 11.1242C3.78227 11.0801 3.72737 11.0372 3.67382 10.9917C3.45959 10.8109 3.25875 10.6128 3.07264 10.4026C3.0298 10.3544 2.98829 10.3048 2.94812 10.2553C2.92536 10.2285 2.90394 10.2004 2.88252 10.1736C2.86377 10.1509 2.82227 10.0933 2.9026 10.1991C2.88921 10.1803 2.87448 10.1616 2.85976 10.1428C2.77942 10.0344 2.70176 9.92324 2.62946 9.81077C2.45808 9.54165 2.30946 9.25914 2.18494 8.96591C2.19833 8.99805 2.21172 9.03018 2.22511 9.06232C2.03365 8.60575 1.90377 8.12642 1.83817 7.63637C1.84352 7.67252 1.84754 7.70734 1.85289 7.74349C1.82076 7.49713 1.80469 7.24809 1.80335 6.99905C1.80335 6.78884 1.61858 6.58801 1.40168 6.59738C1.18344 6.60675 0.998668 6.77412 1.00001 6.99905Z" fill="#FF0000"/>
<path d="M1.00001 6.99905C1.00269 8.2255 1.38026 9.45194 2.0939 10.4508C2.81289 11.4576 3.81038 12.2208 4.97122 12.6466C6.13474 13.0724 7.44419 13.1112 8.63582 12.7738C9.78863 12.4471 10.8464 11.7656 11.6082 10.8391C12.0112 10.349 12.3299 9.81345 12.5695 9.227C12.8039 8.65529 12.9364 8.04608 12.9833 7.43018C13.077 6.20508 12.7744 4.95052 12.1384 3.89947C11.5212 2.87922 10.592 2.03838 9.50344 1.547C8.91164 1.27922 8.29708 1.11186 7.65172 1.03688C7.02511 0.964575 6.38645 1.00073 5.76787 1.12658C4.59499 1.36625 3.49708 1.98081 2.66963 2.84441C1.83683 3.71604 1.2611 4.8434 1.079 6.03905C1.02946 6.35637 1.00001 6.67637 1.00001 6.99905ZM1.00001 6.99905C1.00001 7.20926 1.18478 7.4101 1.40168 7.40073C1.61992 7.39135 1.80335 7.22399 1.80335 6.99905C1.80335 6.75001 1.81942 6.50098 1.85289 6.25462C1.84754 6.29077 1.84352 6.32558 1.83817 6.36173C1.90377 5.87169 2.03365 5.39102 2.22511 4.93579C2.21172 4.96792 2.19833 5.00006 2.18494 5.03219C2.29474 4.7711 2.42461 4.51805 2.57323 4.27704C2.64687 4.15654 2.72586 4.04006 2.80754 3.92625C2.82494 3.90215 2.84235 3.87939 2.85976 3.85529C2.87047 3.84056 2.88118 3.82717 2.89189 3.81378C2.93474 3.75621 2.82762 3.89545 2.87181 3.83922C2.91599 3.78432 2.95884 3.72943 3.00436 3.67587C3.18511 3.46165 3.38327 3.26081 3.59348 3.0747C3.64168 3.03186 3.69122 2.99035 3.74076 2.95018C3.76754 2.92742 3.79566 2.906 3.82243 2.88458C3.8452 2.86583 3.90277 2.82432 3.79699 2.90466C3.81574 2.89127 3.83448 2.87654 3.85323 2.86181C3.96168 2.78148 4.07281 2.70382 4.18528 2.63152C4.4544 2.46014 4.73691 2.31152 5.03013 2.187C4.998 2.20039 4.96587 2.21378 4.93373 2.22717C5.3903 2.03571 5.86963 1.90583 6.35967 1.84022C6.32352 1.84558 6.28871 1.8496 6.25256 1.85495C6.74662 1.79068 7.24737 1.79068 7.74143 1.85495C7.70528 1.8496 7.67047 1.84558 7.63432 1.84022C8.12436 1.90583 8.60503 2.03571 9.06026 2.22717C9.02812 2.21378 8.99599 2.20039 8.96386 2.187C9.22494 2.29679 9.478 2.42667 9.719 2.57529C9.8395 2.64893 9.95599 2.72792 10.0698 2.8096C10.0939 2.827 10.1167 2.84441 10.1408 2.86181C10.1555 2.87253 10.1689 2.88324 10.1823 2.89395C10.2398 2.93679 10.1006 2.82968 10.1568 2.87386C10.2117 2.91805 10.2666 2.96089 10.3202 3.00642C10.5344 3.18717 10.7352 3.38533 10.9213 3.59554C10.9642 3.64374 11.0057 3.69328 11.0459 3.74282C11.0686 3.7696 11.09 3.79771 11.1115 3.82449C11.1302 3.84725 11.1717 3.90483 11.0914 3.79905C11.1048 3.8178 11.1195 3.83654 11.1342 3.85529C11.2146 3.96374 11.2922 4.07487 11.3645 4.18734C11.5359 4.45646 11.6845 4.73897 11.809 5.03219C11.7957 5.00006 11.7823 4.96792 11.7689 4.93579C11.9603 5.39236 12.0902 5.87169 12.1558 6.36173C12.1505 6.32558 12.1465 6.29077 12.1411 6.25462C12.2054 6.74868 12.2054 7.24943 12.1411 7.74349C12.1465 7.70734 12.1505 7.67252 12.1558 7.63637C12.0902 8.12642 11.9603 8.60709 11.7689 9.06232C11.7823 9.03018 11.7957 8.99805 11.809 8.96591C11.6993 9.227 11.5694 9.48006 11.4208 9.72106C11.3471 9.84156 11.2681 9.95805 11.1865 10.0719C11.169 10.096 11.1516 10.1187 11.1342 10.1428C11.1235 10.1575 11.1128 10.1709 11.1021 10.1843C11.0593 10.2419 11.1664 10.1027 11.1222 10.1589C11.078 10.2138 11.0352 10.2687 10.9896 10.3222C10.8089 10.5365 10.6107 10.7373 10.4005 10.9234C10.3523 10.9662 10.3028 11.0078 10.2532 11.0479C10.2265 11.0707 10.1983 11.0921 10.1716 11.1135C10.1488 11.1323 10.0912 11.1738 10.197 11.0934C10.1782 11.1068 10.1595 11.1216 10.1408 11.1363C10.0323 11.2166 9.92118 11.2943 9.80871 11.3666C9.53959 11.538 9.25708 11.6866 8.96386 11.8111C8.99599 11.7977 9.02812 11.7843 9.06026 11.7709C8.60369 11.9624 8.12436 12.0923 7.63432 12.1579C7.67047 12.1525 7.70528 12.1485 7.74143 12.1432C7.24737 12.2074 6.74662 12.2074 6.25256 12.1432C6.28871 12.1485 6.32352 12.1525 6.35967 12.1579C5.86963 12.0923 5.38896 11.9624 4.93373 11.7709C4.96587 11.7843 4.998 11.7977 5.03013 11.8111C4.76904 11.7013 4.51599 11.5714 4.27499 11.4228C4.15448 11.3492 4.038 11.2702 3.92419 11.1885C3.90009 11.1711 3.87733 11.1537 3.85323 11.1363C3.8385 11.1256 3.82511 11.1149 3.81172 11.1042C3.75415 11.0613 3.8934 11.1684 3.83716 11.1242C3.78227 11.0801 3.72737 11.0372 3.67381 10.9917C3.45959 10.8109 3.25875 10.6128 3.07264 10.4026C3.0298 10.3544 2.98829 10.3048 2.94812 10.2553C2.92536 10.2285 2.90394 10.2004 2.88252 10.1736C2.86377 10.1509 2.82227 10.0933 2.9026 10.1991C2.88921 10.1803 2.87448 10.1616 2.85976 10.1428C2.77942 10.0344 2.70176 9.92324 2.62946 9.81077C2.45808 9.54165 2.30946 9.25914 2.18494 8.96591C2.19833 8.99805 2.21172 9.03018 2.22511 9.06232C2.03365 8.60575 1.90377 8.12642 1.83817 7.63637C1.84352 7.67252 1.84754 7.70734 1.85289 7.74349C1.82076 7.49713 1.80469 7.24809 1.80335 6.99905C1.80335 6.78884 1.61858 6.58801 1.40168 6.59738C1.18344 6.60675 0.998668 6.77411 1.00001 6.99905Z" stroke="#FF5630" stroke-width="0.8"/>
<path d="M10.675 2.75587C10.604 2.82683 10.5344 2.89646 10.4634 2.96742C10.2719 3.15888 10.0791 3.35169 9.88768 3.54315C9.60383 3.827 9.31998 4.11085 9.03613 4.3947C8.68935 4.74148 8.34391 5.08692 7.99713 5.43369C7.61822 5.81261 7.23797 6.19286 6.85906 6.57177C6.47613 6.9547 6.0932 7.33763 5.71027 7.72056C5.35278 8.07805 4.99529 8.43554 4.63914 8.79169C4.33655 9.09428 4.03529 9.39553 3.7327 9.69813C3.5158 9.91503 3.29889 10.1319 3.08065 10.3502C2.97755 10.4533 2.87312 10.555 2.77136 10.6595C2.76734 10.6635 2.76199 10.6688 2.75797 10.6729C2.60935 10.8215 2.59864 11.0946 2.75797 11.2406C2.91864 11.3878 3.16768 11.3999 3.32567 11.2406C3.39663 11.1696 3.46626 11.1 3.53722 11.029C3.72868 10.8375 3.92149 10.6447 4.11295 10.4533C4.3968 10.1694 4.68065 9.88558 4.9645 9.60173C5.31128 9.25495 5.65672 8.90951 6.00349 8.56273C6.38241 8.18382 6.76266 7.80357 7.14157 7.42466C7.5245 7.04173 7.90743 6.6588 8.29036 6.27587C8.64785 5.91838 9.00534 5.56089 9.36149 5.20474C9.66408 4.90215 9.96533 4.60089 10.2679 4.2983C10.4848 4.08139 10.7017 3.86449 10.92 3.64625C11.0231 3.54315 11.1275 3.44139 11.2293 3.33696C11.2333 3.33294 11.2386 3.32759 11.2427 3.32357C11.3913 3.17495 11.402 2.90181 11.2427 2.75587C11.082 2.60859 10.833 2.59788 10.675 2.75587Z" fill="#FF0000" stroke="#FF5630" stroke-width="0.8"/>
</svg>
