<svg width="20" height="20" viewBox="0 0 20 20" fill="none" xmlns="http://www.w3.org/2000/svg">
<path d="M7.28912 9.59448C7.22681 9.59445 7.1651 9.60669 7.10753 9.63052C7.04995 9.65435 6.99763 9.68929 6.95357 9.73336C6.90951 9.77742 6.87457 9.82973 6.85074 9.88731C6.82691 9.94489 6.81466 10.0066 6.8147 10.0689V18.5256C6.8147 18.6514 6.86468 18.7721 6.95365 18.8611C7.04263 18.9501 7.1633 19 7.28912 19C7.41495 19 7.53562 18.9501 7.62459 18.8611C7.71356 18.7721 7.76355 18.6514 7.76355 18.5256V10.0689C7.76358 10.0066 7.75134 9.94489 7.72751 9.88731C7.70368 9.82973 7.66873 9.77742 7.62467 9.73336C7.58061 9.68929 7.52829 9.65435 7.47072 9.63052C7.41314 9.60669 7.35143 9.59445 7.28912 9.59448Z" fill="#374A61" stroke="#374A61" stroke-width="0.5"/>
<path d="M3.16339 14.9576C3.10108 14.9576 3.03937 14.9699 2.98179 14.9937C2.92422 15.0175 2.8719 15.0525 2.82784 15.0965C2.78378 15.1406 2.74883 15.1929 2.725 15.2505C2.70118 15.308 2.68893 15.3698 2.68896 15.4321V18.5256C2.68896 18.6514 2.73895 18.772 2.82792 18.861C2.91689 18.95 3.03756 19 3.16339 19C3.28921 19 3.40989 18.95 3.49886 18.861C3.58783 18.772 3.63781 18.6514 3.63781 18.5256V15.4321C3.63785 15.3698 3.6256 15.308 3.60177 15.2505C3.57794 15.1929 3.543 15.1406 3.49894 15.0965C3.45488 15.0525 3.40256 15.0175 3.34499 14.9937C3.28741 14.9699 3.2257 14.9576 3.16339 14.9576Z" fill="#374A61" stroke="#374A61" stroke-width="0.5"/>
<path d="M11.9097 11.1619C11.8474 11.1618 11.7857 11.1741 11.7281 11.1979C11.6706 11.2217 11.6182 11.2567 11.5742 11.3007C11.5301 11.3448 11.4952 11.3971 11.4713 11.4547C11.4475 11.5123 11.4353 11.574 11.4353 11.6363V18.5256C11.4353 18.6515 11.4853 18.7721 11.5743 18.8611C11.6632 18.9501 11.7839 19.0001 11.9097 19.0001C12.0356 19.0001 12.1562 18.9501 12.2452 18.8611C12.3342 18.7721 12.3842 18.6515 12.3842 18.5256V11.6363C12.3842 11.574 12.3719 11.5123 12.3481 11.4547C12.3243 11.3971 12.2893 11.3448 12.2453 11.3007C12.2012 11.2567 12.1489 11.2217 12.0913 11.1979C12.0337 11.1741 11.972 11.1618 11.9097 11.1619Z" fill="#374A61" stroke="#374A61" stroke-width="0.5"/>
<path d="M16.4473 7.28442C16.385 7.28439 16.3233 7.29663 16.2657 7.32046C16.2082 7.34429 16.1558 7.37924 16.1118 7.4233C16.0677 7.46736 16.0328 7.51967 16.0089 7.57725C15.9851 7.63483 15.9729 7.69654 15.9729 7.75885V18.5256C15.9729 18.6514 16.0229 18.7721 16.1119 18.8611C16.2008 18.95 16.3215 19 16.4473 19C16.5731 19 16.6938 18.95 16.7828 18.8611C16.8718 18.7721 16.9217 18.6514 16.9217 18.5256V7.75885C16.9218 7.69654 16.9095 7.63483 16.8857 7.57725C16.8619 7.51967 16.8269 7.46736 16.7829 7.4233C16.7388 7.37924 16.6865 7.34429 16.6289 7.32046C16.5713 7.29663 16.5096 7.28439 16.4473 7.28442Z" fill="#374A61" stroke="#374A61" stroke-width="0.5"/>
<path d="M1.47464 13.1823C1.54337 13.1824 1.61129 13.1675 1.67369 13.1387C1.7361 13.1099 1.79148 13.0678 1.83602 13.0155L7.39753 6.48568L11.116 8.34863C11.2014 8.39104 11.2976 8.40687 11.392 8.39407C11.4865 8.38127 11.575 8.34042 11.646 8.27681L18.0908 2.4716L18.2532 4.60373C18.2624 4.72286 18.3161 4.83415 18.4037 4.91539C18.4913 4.99664 18.6063 5.04185 18.7258 5.04202C18.7378 5.04202 18.7499 5.04155 18.7624 5.04063C18.8245 5.03589 18.8851 5.01896 18.9407 4.99081C18.9963 4.96266 19.0457 4.92383 19.0863 4.87655C19.1269 4.82926 19.1577 4.77445 19.1771 4.71524C19.1965 4.65603 19.204 4.59358 19.1993 4.53146L18.9635 1.43705C18.9595 1.41881 18.9543 1.40084 18.9481 1.38325C18.9424 1.35013 18.9331 1.31774 18.9204 1.28665C18.9074 1.25872 18.8917 1.23215 18.8735 1.20731C18.8644 1.18951 18.8543 1.17231 18.843 1.15582C18.8357 1.14766 18.8255 1.14459 18.8178 1.13706C18.7927 1.11382 18.7652 1.09339 18.7358 1.07613C18.7142 1.06132 18.6915 1.04836 18.6678 1.03739C18.6365 1.02573 18.604 1.01766 18.5709 1.01335C18.5428 1.00742 18.5141 1.00414 18.4853 1.00357C18.475 1.00385 18.4657 0.999106 18.4552 1.00015L14.7872 1.27489C14.725 1.27941 14.6644 1.29616 14.6086 1.32416C14.5529 1.35217 14.5033 1.39088 14.4625 1.43809C14.4218 1.4853 14.3908 1.54008 14.3712 1.5993C14.3517 1.65852 14.344 1.72101 14.3486 1.78319C14.3532 1.84538 14.3701 1.90604 14.3982 1.96171C14.4263 2.01738 14.4651 2.06697 14.5124 2.10763C14.5597 2.14829 14.6145 2.17922 14.6737 2.19867C14.733 2.21812 14.7955 2.22569 14.8577 2.22096L17.1411 2.05011L11.2518 7.35484L7.49017 5.47058C7.39514 5.42333 7.28707 5.40916 7.18308 5.43031C7.07909 5.45146 6.98513 5.50672 6.91611 5.58733L1.11326 12.4002C1.0545 12.4692 1.01672 12.5536 1.0044 12.6434C0.992085 12.7332 1.00574 12.8246 1.04376 12.9069C1.08177 12.9891 1.14255 13.0588 1.21891 13.1076C1.29527 13.1564 1.38401 13.1823 1.47464 13.1823V13.1823Z" fill="#374A61" stroke="#374A61" stroke-width="0.5"/>
</svg>
